<svg xmlns="http://www.w3.org/2000/svg" viewBox="0 0 256 256" width="256" height="256"><g stroke="#1f2937" stroke-width="8" stroke-linejoin="round" stroke-linecap="round" fill="none"><g transform="translate(4 48) scale(.8)"><circle cx="150" cy="116" r="78" fill="#3bb4e8"/><path d="M118 70 q22 -10 34 10 q-10 22 -34 14 Z M164 128 q26 -10 38 14 q-14 26 -36 18 Z" fill="#6cc070" stroke-width="6"/><path d="M44 38 H122 M44 214 H122" stroke-width="12"/><path d="M52 44 V70 C52 100 98 110 98 126 C98 142 52 152 52 182 V208 H114 V182 C114 152 68 142 68 126 C68 110 114 100 114 70 V44 Z" fill="#f5b324"/><path d="M64 188 H102 L83 168 Z" fill="#f58a3b" stroke-width="5"/></g><g transform="translate(150 6)"><circle cx="44" cy="44" r="38" fill="#fff3d6"/><path d="M44 14 L56 44 H32Z" fill="#ef5b5b"/><path d="M44 74 L56 44 H32Z" fill="#3bb4e8"/></g><path d="M40 24 Q40 36 52 36 Q40 36 40 48 Q40 36 28 36 Q40 36 40 24Z" fill="#f5b324" stroke-width="5"/></g></svg>