<svg xmlns="http://www.w3.org/2000/svg" viewBox="0 0 256 256" width="256" height="256"><defs><linearGradient id="informatics-technology-g0" x1="0" y1="0" x2="0" y2="1"><stop offset="0" stop-color="#9fd8f0"/><stop offset="1" stop-color="#5eb2d5"/></linearGradient><linearGradient id="informatics-technology-g1" x1="0" y1="0" x2="0" y2="1"><stop offset="0" stop-color="#f8da97"/><stop offset="1" stop-color="#e1b451"/></linearGradient></defs><g stroke="#9db4c4" stroke-width="2.5" fill="#cfe0ea" opacity=".7"><path d="M16 40 L44 22 L78 34 M222 214 L240 186 L212 170 M236 56 L214 78 M20 210 L48 226"/><circle cx="16" cy="40" r="5"/><circle cx="44" cy="22" r="5"/><circle cx="78" cy="34" r="5"/><circle cx="222" cy="214" r="5"/><circle cx="240" cy="186" r="5"/><circle cx="212" cy="170" r="5"/><circle cx="236" cy="56" r="5"/><circle cx="214" cy="78" r="5"/><circle cx="20" cy="210" r="5"/><circle cx="48" cy="226" r="5"/></g><g stroke="#475569" stroke-width="3.4" stroke-linejoin="round" stroke-linecap="round" fill="none"><rect x="28" y="36" width="200" height="140" rx="16" fill="url(#informatics-technology-g0)"/><rect x="44" y="52" width="168" height="108" rx="6" fill="#e6f6fb"/><path d="M100 176 L92 212 H164 L156 176 M76 212 H180"/><path d="M151.5 97.5 L161.5 100.0 L161.5 112.0 L151.5 114.5 L150.6 116.6 L155.9 125.5 L147.5 133.9 L138.6 128.6 L136.5 129.5 L134.0 139.5 L122.0 139.5 L119.5 129.5 L117.4 128.6 L108.5 133.9 L100.1 125.5 L105.4 116.6 L104.5 114.5 L94.5 112.0 L94.5 100.0 L104.5 97.5 L105.4 95.4 L100.1 86.5 L108.5 78.1 L117.4 83.4 L119.5 82.5 L122.0 72.5 L134.0 72.5 L136.5 82.5 L138.6 83.4 L147.5 78.1 L155.9 86.5 L150.6 95.4 Z" fill="url(#informatics-technology-g1)"/><circle cx="128" cy="106" r="8.5" fill="#fff"/></g></svg>