<svg xmlns="http://www.w3.org/2000/svg" viewBox="0 0 256 256" width="256" height="256"><g stroke="#1f2937" stroke-width="8" stroke-linejoin="round" stroke-linecap="round" fill="none"><g transform="translate(4 48) scale(.8)"><rect x="50" y="34" width="124" height="176" rx="14" fill="#fff3d6"/><path d="M76 78 H148 M76 108 H148 M76 138 H120" stroke-width="7"/><g transform="translate(176 150) rotate(38)"><rect x="-15" y="-66" width="30" height="100" rx="5" fill="#f5b324"/><path d="M-15 34 L15 34 L0 64 Z" fill="#f3d9b1"/><path d="M-6 52 L6 52 L0 64Z" fill="#1f2937" stroke-width="4"/><rect x="-15" y="-88" width="30" height="22" rx="5" fill="#f06292"/></g></g><g transform="translate(150 6)"><path d="M4 22 Q28 8 44 22 V78 Q28 64 4 78Z" fill="#3bb4e8"/><path d="M44 22 Q60 8 84 22 V78 Q60 64 44 78Z" fill="#fff3d6"/></g><path d="M40 24 Q40 36 52 36 Q40 36 40 48 Q40 36 28 36 Q40 36 40 24Z" fill="#f5b324" stroke-width="5"/></g></svg>