<svg xmlns="http://www.w3.org/2000/svg" viewBox="0 0 256 256" width="256" height="256"><g stroke="#1f2937" stroke-width="8" stroke-linejoin="round" stroke-linecap="round" fill="none"><g transform="translate(4 48) scale(.8)"><path d="M44 108 V214 H190 V108" fill="#fff3d6"/><path d="M26 118 L117 36 L208 118Z" fill="#ef5b5b"/><rect x="92" y="148" width="50" height="66" rx="6" fill="#a9744f"/><rect x="58" y="128" width="26" height="26" rx="4" fill="#e6f6fb" stroke-width="6"/><path d="M216 128 C186 98 194 56 216 56 C238 56 246 98 216 128Z" fill="#3bb4e8"/><circle cx="216" cy="86" r="10" fill="#fff" stroke-width="5"/><path d="M16 214 H240" stroke-width="8"/></g><g transform="translate(150 6)"><circle cx="44" cy="44" r="38" fill="#3bb4e8"/><ellipse cx="44" cy="44" rx="16" ry="38"/><path d="M6 44 H82" stroke-width="6"/></g><path d="M40 24 Q40 36 52 36 Q40 36 40 48 Q40 36 28 36 Q40 36 40 24Z" fill="#f5b324" stroke-width="5"/></g></svg>