<svg xmlns="http://www.w3.org/2000/svg" viewBox="0 0 256 256" width="256" height="256"><defs><linearGradient id="local-education-g0" x1="0" y1="0" x2="0" y2="1"><stop offset="0" stop-color="#f5afaf"/><stop offset="1" stop-color="#dc7676"/></linearGradient><linearGradient id="local-education-g1" x1="0" y1="0" x2="0" y2="1"><stop offset="0" stop-color="#c7ae9d"/><stop offset="1" stop-color="#9b775d"/></linearGradient><linearGradient id="local-education-g2" x1="0" y1="0" x2="0" y2="1"><stop offset="0" stop-color="#9fd8f0"/><stop offset="1" stop-color="#5eb2d5"/></linearGradient></defs><g stroke="#9db4c4" stroke-width="2.5" fill="#cfe0ea" opacity=".7"><path d="M16 40 L44 22 L78 34 M222 214 L240 186 L212 170 M236 56 L214 78 M20 210 L48 226"/><circle cx="16" cy="40" r="5"/><circle cx="44" cy="22" r="5"/><circle cx="78" cy="34" r="5"/><circle cx="222" cy="214" r="5"/><circle cx="240" cy="186" r="5"/><circle cx="212" cy="170" r="5"/><circle cx="236" cy="56" r="5"/><circle cx="214" cy="78" r="5"/><circle cx="20" cy="210" r="5"/><circle cx="48" cy="226" r="5"/></g><g stroke="#475569" stroke-width="3.4" stroke-linejoin="round" stroke-linecap="round" fill="none"><path d="M44 108 V214 H190 V108" fill="#fff3d6"/><path d="M26 118 L117 36 L208 118Z" fill="url(#local-education-g0)"/><rect x="92" y="148" width="50" height="66" rx="6" fill="url(#local-education-g1)"/><rect x="58" y="128" width="26" height="26" rx="4" fill="#e6f6fb" stroke-width="2.5"/><path d="M216 128 C186 98 194 56 216 56 C238 56 246 98 216 128Z" fill="url(#local-education-g2)"/><circle cx="216" cy="86" r="10" fill="#fff" stroke-width="2.5"/><path d="M16 214 H240" stroke-width="3.4"/></g></svg>